<?xml version="1.0" encoding="UTF-8" standalone="no"?>
<svg width="22px" height="20px" viewBox="0 0 22 20" version="1.1" xmlns="http://www.w3.org/2000/svg" xmlns:xlink="http://www.w3.org/1999/xlink">
    <!-- Generator: Sketch 48.2 (47327) - http://www.bohemiancoding.com/sketch -->
    <title>icon_tick</title>
    <desc>Created with Sketch.</desc>
    <defs></defs>
    <g id="Group-Discounts" stroke="none" stroke-width="1" fill="none" fill-rule="evenodd" transform="translate(-942.000000, -977.000000)">
        <g id="sidebar" transform="translate(873.000000, 525.000000)">
            <g id="assurance" transform="translate(10.000000, 426.000000)">
                <g id="1" transform="translate(25.000000, 25.000000)">
                    <g id="icon_tick" transform="translate(34.000000, 0.000000)">
                        <rect id="frame" x="0" y="0" width="22" height="22"></rect>
                        <path d="M21.0395969,1.15342578 C20.0459197,0.602794015 18.9386521,1.6637794 18.2895642,2.29300268 C16.801912,3.78575018 15.5414406,5.51476341 14.1287199,7.08610242 C12.5623181,8.81511565 11.1118931,10.5456025 9.50874144,12.2343375 C8.59142753,13.1784181 7.59965942,14.1991253 6.9882759,15.3789804 C5.61421411,14.0031377 4.43010599,12.5103902 2.90331764,11.2922218 C1.79605007,10.4267328 -0.0366686717,9.79750953 0.000558427758,11.8811669 C0.0769217086,14.5920829 2.40743359,17.5009511 4.12465287,19.3468692 C4.84962676,20.1337667 5.80416777,20.9584864 6.91143535,20.9972909 C8.24827003,21.0758825 9.62233182,19.4254607 10.4241463,18.5216584 C11.8373442,16.9503194 12.983748,15.1815192 14.2814465,13.5713756 C15.9609614,11.4494048 17.6800898,9.36574742 19.3204685,7.20497208 C20.3518501,5.86793401 23.5972895,2.56758177 21.0395969,1.15342578 Z" id="Fill-1" fill="#5D8A29"></path>
                    </g>
                </g>
            </g>
        </g>
    </g>
</svg>