<?xml version="1.0" encoding="UTF-8" standalone="no"?>
<svg width="1536px" height="1536px" viewBox="0 0 1536 1536" version="1.1" xmlns="http://www.w3.org/2000/svg" xmlns:xlink="http://www.w3.org/1999/xlink">
    <!-- Generator: Sketch 49.1 (51147) - http://www.bohemiancoding.com/sketch -->
    <title>if_phone-square_1608789</title>
    <desc>Created with Sketch.</desc>
    <defs></defs>
    <g id="Page-1" stroke="none" stroke-width="1" fill="none" fill-rule="evenodd">
        <g id="if_phone-square_1608789" fill="#FFFFFF" fill-rule="nonzero">
            <path d="M1280,1065 C1280,1057.66667 1279.33333,1052.33333 1278,1049 C1276,1043.66667 1263.16667,1033.83333 1239.5,1019.5 C1215.83333,1005.16667 1186.33333,988.666667 1151,970 L1098,941 C1094.66667,939 1088.33333,934.666667 1079,928 C1069.66667,921.333333 1061.33333,916.333333 1054,913 C1046.66667,909.666667 1039.66667,908 1033,908 C1021,908 1005.33333,918.833333 986,940.5 C966.666667,962.166667 947.666667,984 929,1006 C910.333333,1028 895.666667,1039 885,1039 C880.333333,1039 874.833333,1037.83333 868.5,1035.5 C862.166667,1033.16667 857,1031 853,1029 C849,1027 843.333333,1023.83333 836,1019.5 C828.666667,1015.16667 824,1012.33333 822,1011 C756,974.333333 699.166667,932.166667 651.5,884.5 C603.833333,836.833333 561.666667,780 525,714 C523.666667,712 520.833333,707.333333 516.5,700 C512.166667,692.666667 509,687 507,683 C505,679 502.833333,673.833333 500.5,667.5 C498.166667,661.166667 497,655.666667 497,651 C497,642.333333 503.833333,631.166667 517.5,617.5 C531.166667,603.833333 546.166667,591 562.5,579 C578.833333,567 593.833333,553.833333 607.5,539.5 C621.166667,525.166667 628,513 628,503 C628,496.333333 626.333333,489.333333 623,482 C619.666667,474.666667 614.666667,466.333333 608,457 C601.333333,447.666667 597,441.333333 595,438 C593,434 588,424.5 580,409.5 C572,394.5 563.666667,379.333333 555,364 C546.333333,348.666667 537.5,332.833333 528.5,316.5 C519.5,300.166667 511.166667,286.666667 503.5,276 C495.833333,265.333333 490.333333,259.333333 487,258 C483.666667,256.666667 478.333333,256 471,256 C439,256 405.333333,263.333333 370,278 C339.333333,292 312.666667,323.5 290,372.5 C267.333333,421.5 256,465 256,503 C256,513.666667 256.833333,525 258.5,537 C260.166667,549 261.833333,559.166667 263.5,567.5 C265.166667,575.833333 268.166667,586.833333 272.5,600.5 C276.833333,614.166667 280.166667,624 282.5,630 C284.833333,636 289,647 295,663 C301,679 304.666667,689 306,693 C346,802.333333 418.166667,909.166667 522.5,1013.5 C626.833333,1117.83333 733.666667,1190 843,1230 C847,1231.33333 857,1235 873,1241 C889,1247 900,1251.16667 906,1253.5 C912,1255.83333 921.833333,1259.16667 935.5,1263.5 C949.166667,1267.83333 960.166667,1270.83333 968.5,1272.5 C976.833333,1274.16667 987,1275.83333 999,1277.5 C1011,1279.16667 1022.33333,1280 1033,1280 C1071,1280 1114.5,1268.66667 1163.5,1246 C1212.5,1223.33333 1244,1196.66667 1258,1166 C1272.66667,1130.66667 1280,1097 1280,1065 Z M1536,288 L1536,1248 C1536,1327.33333 1507.83333,1395.16667 1451.5,1451.5 C1395.16667,1507.83333 1327.33333,1536 1248,1536 L288,1536 C208.666667,1536 140.833333,1507.83333 84.5,1451.5 C28.1666667,1395.16667 0,1327.33333 0,1248 L0,288 C0,208.666667 28.1666667,140.833333 84.5,84.5 C140.833333,28.1666667 208.666667,0 288,0 L1248,0 C1327.33333,0 1395.16667,28.1666667 1451.5,84.5 C1507.83333,140.833333 1536,208.666667 1536,288 Z" id="Shape"></path>
        </g>
    </g>
</svg>