<?xml version="1.0" encoding="UTF-8" standalone="no"?>
<svg width="30px" height="20px" viewBox="0 0 30 20" version="1.1" xmlns="http://www.w3.org/2000/svg" xmlns:xlink="http://www.w3.org/1999/xlink">
    <!-- Generator: Sketch 39.1 (31720) - http://www.bohemiancoding.com/sketch -->
    <title>Shape</title>
    <desc>Created with Sketch.</desc>
    <defs></defs>
    <g id="-Symbols" stroke="none" stroke-width="1" fill="none" fill-rule="evenodd" opacity="0.9">
        <g id="home/banner_with_offer" transform="translate(-993.000000, -701.000000)" fill="#FFFFFF">
            <path d="M994.666726,714.332382 C993.746686,714.332382 993,715.078592 993,715.999108 L993,719.33256 C993,720.252839 993.746686,721 994.666726,721 C995.586767,721 996.333452,720.252839 996.333452,719.33256 L996.333452,715.999108 C996.333452,715.078592 995.586529,714.332382 994.666726,714.332382 L994.666726,714.332382 Z M1001.33315,710.999168 C1000.41311,710.999168 999.666667,711.745378 999.666667,712.665656 L999.666667,719.332323 C999.666667,720.252601 1000.41335,720.998811 1001.33315,720.998811 C1002.25296,720.998811 1002.99988,720.252601 1002.99988,719.332323 L1002.99988,712.665656 C1002.99988,711.745378 1002.2532,710.999168 1001.33315,710.999168 L1001.33315,710.999168 Z M1007.99958,707.665953 C1007.07954,707.665953 1006.3331,708.412639 1006.3331,709.332679 L1006.3331,719.33256 C1006.3331,720.252839 1007.07978,720.999049 1007.99958,720.999049 C1008.91915,720.999049 1009.66631,720.252839 1009.66631,719.33256 L1009.66631,709.332442 C1009.66631,708.412401 1008.91915,707.665953 1007.99958,707.665953 L1007.99958,707.665953 Z M1014.66601,704.332739 C1013.74669,704.332739 1012.99952,705.079425 1012.99952,705.999227 L1012.99952,719.332323 C1012.99952,720.252601 1013.74669,720.999762 1014.66601,720.999762 C1015.58558,720.999762 1016.33274,720.252601 1016.33274,719.332323 L1016.33274,705.999227 C1016.33274,705.079187 1015.58582,704.332739 1014.66601,704.332739 L1014.66601,704.332739 Z M1021.33268,701 C1020.41311,701 1019.66595,701.745972 1019.66595,702.665775 L1019.66595,719.332085 C1019.66595,720.252363 1020.41311,720.999524 1021.33268,720.999524 C1022.25224,720.999524 1022.99917,720.252363 1022.99917,719.332085 L1022.99917,702.666013 C1022.99917,701.745972 1022.25248,701 1021.33268,701 L1021.33268,701 Z" id="Shape"></path>
        </g>
    </g>
</svg>